# xmcd CD database file generated by Grip 2.96
# 
# Track frame offsets:
#       150
#       11703
#       24328
#       31717
#       42894
#       54878
#       69417
#       82223
#       97521
#       110549
#       120839
#       133282
#       145965
#       158506
# 
# Disc length: 2262 seconds
# 
# Revision: 0
# Processed by: cddbd v1.4PL0 Copyright (c) Steve Scherf et al.
# Submitted via: Grip 2.96
# 
DISCID=a408d40e
DTITLE=Ed Teja - Union City Blues
DYEAR=1900
DGENRE=
TTITLE0=That'll Never Happen No More
TTITLE1=Sand The Rough Times Smooth
TTITLE2=Shuffle Rag
TTITLE3=Drinking Cheap Whiskey
TTITLE4=Trouble in Mind
TTITLE5=Chancy
TTITLE6=Worrying You Off My Mind
TTITLE7=Charley James
TTITLE8=Weeping Willow
TTITLE9=Key To The Highway
TTITLE10=Spoonful Blues
TTITLE11=Corrine
TTITLE12=Sitting On Top Of The World
TTITLE13=Union City Blues
EXTD=
EXTT0=
EXTT1=
EXTT2=
EXTT3=
EXTT4=
EXTT5=
EXTT6=
EXTT7=
EXTT8=
EXTT9=
EXTT10=
EXTT11=
EXTT12=
EXTT13=
PLAYORDER=
